<svg width="53" height="52" viewBox="0 0 53 52" fill="none" xmlns="http://www.w3.org/2000/svg">
<path d="M52.5 32.5003V52H26.5V32.5003H33V26.0004H46V32.5003H52.5ZM36.25 32.5003H42.75V29.2503H36.25V32.5003ZM49.25 42.2501H46V45.5001H42.75V42.2501H36.25V45.5001H33V42.2501H29.75V48.75H49.25V42.2501ZM49.25 35.7502H29.75V39.0002H49.25V35.7502ZM40.2363 22.7504C39.3223 21.7179 38.2389 20.9223 36.9863 20.3638C35.7337 19.8052 34.4049 19.5174 33 19.5005C31.6458 19.5005 30.3848 19.7544 29.2168 20.2622C28.0488 20.77 27.0163 21.464 26.1191 22.3442C25.222 23.2244 24.5195 24.2654 24.0117 25.4672C23.5039 26.669 23.25 27.9301 23.25 29.2503C23.25 30.8076 22.903 32.2718 22.209 33.6429C21.515 35.0139 20.5332 36.165 19.2637 37.0959C20.0254 37.4852 20.7363 37.9338 21.3965 38.4416C22.0566 38.9494 22.6745 39.5249 23.25 40.1681V48.75C23.25 47.4128 22.9961 46.1518 22.4883 44.9669C21.9805 43.782 21.2865 42.7495 20.4062 41.8693C19.526 40.9891 18.485 40.2866 17.2832 39.7619C16.0814 39.2372 14.8203 38.9833 13.5 39.0002C12.1458 39.0002 10.8848 39.2541 9.7168 39.7619C8.54883 40.2697 7.51628 40.9637 6.61914 41.8439C5.72201 42.7241 5.01953 43.7651 4.51172 44.9669C4.00391 46.1687 3.75 47.4298 3.75 48.75H0.5C0.5 47.5144 0.669271 46.321 1.00781 45.17C1.34635 44.019 1.82878 42.9272 2.45508 41.8947C3.08138 40.8621 3.8431 39.9481 4.74023 39.1525C5.63737 38.357 6.63607 37.6714 7.73633 37.0959C6.48372 36.1819 5.51042 35.0393 4.81641 33.6682C4.1224 32.2972 3.76693 30.8245 3.75 29.2503C3.75 27.9131 4.00391 26.6521 4.51172 25.4672C5.01953 24.2823 5.71354 23.2498 6.59375 22.3696C7.47396 21.4894 8.50651 20.7869 9.69141 20.2622C10.8763 19.7375 12.1458 19.4836 13.5 19.5005C15.0573 19.5005 16.5215 19.8475 17.8926 20.5415C19.2637 21.2355 20.4147 22.2173 21.3457 23.4868C21.9889 22.2173 22.8099 21.0832 23.8086 20.0845C24.8073 19.0858 25.9499 18.2564 27.2363 17.5962C25.9837 16.6822 25.0104 15.5396 24.3164 14.1685C23.6224 12.7975 23.2669 11.3248 23.25 9.75064C23.25 8.41343 23.5039 7.15238 24.0117 5.9675C24.5195 4.78262 25.2135 3.75009 26.0938 2.86989C26.974 1.9897 28.0065 1.28723 29.1914 0.762501C30.3763 0.237769 31.6458 -0.0161334 33 0.000793445C34.3372 0.000793445 35.5983 0.254696 36.7832 0.762501C37.9681 1.27031 39.0007 1.96431 39.8809 2.8445C40.7611 3.72469 41.4635 4.76569 41.9883 5.9675C42.513 7.1693 42.7669 8.43035 42.75 9.75064C42.75 11.3079 42.403 12.7721 41.709 14.1432C41.015 15.5142 40.0332 16.6653 38.7637 17.5962C39.9147 18.1717 40.9557 18.8911 41.8867 19.7544C42.8177 20.6177 43.6048 21.6163 44.248 22.7504H40.2363ZM13.5 35.7502C14.3971 35.7502 15.235 35.581 16.0137 35.2424C16.7923 34.9039 17.4863 34.4384 18.0957 33.846C18.7051 33.2535 19.1706 32.568 19.4922 31.7894C19.8138 31.0107 19.9831 30.1644 20 29.2503C20 28.3532 19.8307 27.5153 19.4922 26.7367C19.1536 25.9581 18.6882 25.2641 18.0957 24.6547C17.5033 24.0453 16.8177 23.5799 16.0391 23.2583C15.2604 22.9366 14.4141 22.7674 13.5 22.7504C12.6029 22.7504 11.765 22.9197 10.9863 23.2583C10.2077 23.5968 9.51367 24.0623 8.9043 24.6547C8.29492 25.2472 7.82943 25.9327 7.50781 26.7113C7.1862 27.49 7.01693 28.3363 7 29.2503C7 30.1475 7.16927 30.9853 7.50781 31.764C7.84635 32.5426 8.31185 33.2366 8.9043 33.846C9.49675 34.4553 10.1823 34.9208 10.9609 35.2424C11.7396 35.5641 12.5859 35.7333 13.5 35.7502ZM26.5 9.75064C26.5 10.6478 26.6693 11.4856 27.0078 12.2643C27.3464 13.0429 27.8118 13.7369 28.4043 14.3463C28.9967 14.9556 29.6823 15.4211 30.4609 15.7427C31.2396 16.0644 32.0859 16.2336 33 16.2505C33.8971 16.2505 34.735 16.0813 35.5137 15.7427C36.2923 15.4042 36.9863 14.9387 37.5957 14.3463C38.2051 13.7538 38.6706 13.0683 38.9922 12.2897C39.3138 11.511 39.4831 10.6647 39.5 9.75064C39.5 8.85352 39.3307 8.01565 38.9922 7.23701C38.6536 6.45838 38.1882 5.76438 37.5957 5.15501C37.0033 4.54565 36.3177 4.08016 35.5391 3.75855C34.7604 3.43694 33.9141 3.26767 33 3.25074C32.1029 3.25074 31.265 3.42001 30.4863 3.75855C29.7077 4.09708 29.0137 4.56257 28.4043 5.15501C27.7949 5.74745 27.3294 6.43299 27.0078 7.21162C26.6862 7.99025 26.5169 8.8366 26.5 9.75064Z" fill="#E4ADFF"/>
</svg>
