<svg width="53" height="52" viewBox="0 0 53 52" fill="none" xmlns="http://www.w3.org/2000/svg">
<path d="M52.286 49.3059L44.6134 41.6806V12.3452L40.9898 5.68089C40.7225 5.17279 40.3215 4.74739 39.83 4.45062C39.3386 4.15384 38.7754 3.99699 38.2012 3.99699C37.6271 3.99699 37.0639 4.15384 36.5725 4.45062C36.081 4.74739 35.6799 5.17279 35.4126 5.68089L32.0096 12.3609V29.1398L3.1941 0.466052C2.97373 0.243863 2.69219 0.0923324 2.38537 0.030779C2.07855 -0.0307744 1.76035 0.000438165 1.47134 0.120437C1.18233 0.240436 0.935597 0.443785 0.762608 0.704558C0.589619 0.965331 0.498207 1.27171 0.500027 1.58464V14.3145H3.91882V16.8353H0.500027V26.9183H3.91882V29.4391H0.500027V39.916H3.91882V42.4368H0.500027V50.4245C0.500027 50.8423 0.666014 51.2431 0.961474 51.5385C1.25693 51.834 1.65766 52 2.07551 52H51.1674C51.4804 52.0018 51.7867 51.9104 52.0475 51.7374C52.3083 51.5644 52.5116 51.3177 52.6316 51.0287C52.7516 50.7397 52.7828 50.4215 52.7213 50.1146C52.6597 49.8078 52.5082 49.5263 52.286 49.3059ZM13.1039 39.5222V25.2483L27.3935 39.5222H13.1039ZM41.4625 42.8464H35.1606V39.018H41.4625V42.8464ZM41.4625 36.5445H35.1606V13.1329L38.217 7.19335L41.4625 13.1487V36.5445Z" fill="#E4ADFF"/>
</svg>
