<svg width="53" height="52" viewBox="0 0 53 52" fill="none" xmlns="http://www.w3.org/2000/svg">
<path fill-rule="evenodd" clip-rule="evenodd" d="M26.4507 5.57319C24.8981 5.54515 23.3552 5.82357 21.9102 6.39251C20.4653 6.96145 19.1468 7.80974 18.0301 8.88884C16.9134 9.96794 16.0204 11.2567 15.4023 12.6813C14.7843 14.1058 14.4532 15.6383 14.428 17.191V33.4293C14.428 34.4143 14.0367 35.359 13.3402 36.0556C12.6437 36.7521 11.6989 37.1434 10.7139 37.1434H6.07122C4.59364 37.1434 3.17658 36.5565 2.13177 35.5116C1.08697 34.4668 0.5 33.0498 0.5 31.5722L0.5 24.1439C0.5 22.6663 1.08697 21.2493 2.13177 20.2045C3.17658 19.1597 4.59364 18.5727 6.07122 18.5727H8.85682V17.1242C8.89071 14.8414 9.37395 12.5877 10.2789 10.4918C11.1839 8.39582 12.493 6.49868 14.1312 4.90868C15.7695 3.31869 17.705 2.067 19.827 1.2251C21.9491 0.383194 24.2163 -0.0324254 26.499 0.00197338C28.7817 -0.0324254 31.0489 0.383194 33.171 1.2251C35.2931 2.067 37.2285 3.31869 38.8668 4.90868C40.5051 6.49868 41.8141 8.39582 42.7191 10.4918C43.6241 12.5877 44.1073 14.8414 44.1412 17.1242V18.5727H46.9268C48.4044 18.5727 49.8214 19.1597 50.8663 20.2045C51.9111 21.2493 52.498 22.6663 52.498 24.1439V31.5722C52.498 33.0498 51.9111 34.4668 50.8663 35.5116C49.8214 36.5565 48.4044 37.1434 46.9268 37.1434H44.1412V39.0005C44.1417 41.5104 43.218 43.9325 41.5465 45.8048C39.8749 47.6771 37.5726 48.8683 35.0787 49.1512C34.5944 50.0159 33.8882 50.7358 33.0329 51.2365C32.1776 51.7373 31.2042 52.0009 30.2132 52H24.6419C23.1644 52 21.7473 51.413 20.7025 50.3682C19.6577 49.3234 19.0707 47.9064 19.0707 46.4288C19.0707 44.9512 19.6577 43.5341 20.7025 42.4893C21.7473 41.4445 23.1644 40.8576 24.6419 40.8576H30.2132C32.2262 40.8576 33.9904 41.9235 34.9673 43.5243C35.991 43.289 36.9046 42.7135 37.559 41.8919C38.2134 41.0702 38.5698 40.0509 38.57 39.0005V17.1873C38.5445 15.6266 38.2099 14.0865 37.5856 12.6559C36.9613 11.2253 36.0596 9.93264 34.9326 8.85266C33.8056 7.77268 32.4758 6.92679 31.0199 6.36389C29.5641 5.80099 28.0111 5.53224 26.4507 5.57319Z" fill="#E4ADFF"/>
</svg>
