<svg width="56" height="52" viewBox="0 0 56 52" fill="none" xmlns="http://www.w3.org/2000/svg">
<path fill-rule="evenodd" clip-rule="evenodd" d="M28.8481 0.177617C28.5907 0.0605644 28.3113 0 28.0285 0C27.7458 0 27.4663 0.0605644 27.209 0.177617L16.8239 4.90494L28.0206 10.0044L39.2252 4.90098L28.8481 0.177617ZM14.9631 20.4964V8.4049L26.0489 13.4529V26.8153L16.1152 22.2978C15.7694 22.1406 15.4761 21.8871 15.2704 21.5676C15.0647 21.2482 14.9553 20.8763 14.9552 20.4964H14.9631ZM30.0082 47.0708V33.8469L40.508 38.6297V51.9921L30.5862 47.4746C30.3695 47.3761 30.1763 47.2393 30.0082 47.0708ZM44.4673 52V38.6297L55.565 33.5777V45.6731C55.5649 46.0531 55.4555 46.425 55.2498 46.7444C55.0441 47.0638 54.7508 47.3173 54.4049 47.4746L44.4673 52ZM26.041 33.8469V47.0866C25.8763 47.2479 25.6847 47.3792 25.4748 47.4746L15.5372 52V38.6297L26.041 33.8469ZM11.5779 38.6297V51.9921L1.66005 47.4746C1.31421 47.3173 1.02094 47.0638 0.815238 46.7444C0.609539 46.425 0.500105 46.0531 0.5 45.6731V33.5817L11.5858 38.6297H11.5779ZM30.0002 26.8232V13.449L41.098 8.39698V20.4964C41.0979 20.8763 40.9884 21.2482 40.7827 21.5676C40.577 21.8871 40.2838 22.1406 39.9379 22.2978L30.0002 26.8232ZM41.6721 25.3583C41.9294 25.2413 42.2089 25.1807 42.4916 25.1807C42.7743 25.1807 43.0538 25.2413 43.3112 25.3583L53.6844 30.0777L42.4797 35.1812L31.2949 30.0777L41.676 25.3504L41.6721 25.3583ZM12.7459 25.3583C13.0033 25.2413 13.2827 25.1807 13.5655 25.1807C13.8482 25.1807 14.1277 25.2413 14.385 25.3583L24.7582 30.0777L13.5575 35.1851L2.3648 30.0777L12.7459 25.3583Z" fill="#E4ADFF"/>
</svg>
