<svg width="94" height="94" viewBox="0 0 94 94" fill="none" xmlns="http://www.w3.org/2000/svg">
<path d="M30.2146 71.1043L23.5003 64.3867L18.7634 69.1202L30.2146 80.5714L50.3574 60.4286L45.6238 55.695L30.2146 71.1043ZM87.2858 94H73.8573V87.2857H87.2858V47H73.8573V20.1429C73.8528 16.5827 72.4366 13.1697 69.9192 10.6523C67.4019 8.13495 63.9889 6.71873 60.4288 6.71429V0C65.769 0.00621948 70.8888 2.1304 74.665 5.90658C78.4411 9.68275 80.5653 14.8025 80.5715 20.1429V40.2857H87.2858C89.066 40.2875 90.7727 40.9955 92.0315 42.2542C93.2903 43.513 93.9983 45.2198 94.0001 47V87.2857C93.9983 89.0659 93.2903 90.7727 92.0315 92.0315C90.7727 93.2903 89.066 93.9982 87.2858 94Z" fill="#3B028B"/>
<path d="M60.4283 40.2857H53.7141V20.1429C53.7141 14.8006 51.5919 9.67723 47.8144 5.89971C44.0369 2.12219 38.9135 0 33.5713 0C28.2291 0 23.1057 2.12219 19.3282 5.89971C15.5507 9.67723 13.4285 14.8006 13.4285 20.1429V40.2857H6.71426C4.93353 40.2857 3.22573 40.9931 1.96656 42.2523C0.707393 43.5115 0 45.2193 0 47V87.2857C0 89.0665 0.707393 90.7743 1.96656 92.0334C3.22573 93.2926 4.93353 94 6.71426 94H60.4283C62.2091 94 63.9169 93.2926 65.176 92.0334C66.4352 90.7743 67.1426 89.0665 67.1426 87.2857V47C67.1426 45.2193 66.4352 43.5115 65.176 42.2523C63.9169 40.9931 62.2091 40.2857 60.4283 40.2857ZM20.1428 20.1429C20.1428 16.5814 21.5576 13.1658 24.0759 10.6474C26.5942 8.12908 30.0098 6.71429 33.5713 6.71429C37.1328 6.71429 40.5484 8.12908 43.0667 10.6474C45.585 13.1658 46.9998 16.5814 46.9998 20.1429V40.2857H20.1428V20.1429ZM60.4283 87.2857H6.71426V47H60.4283V87.2857Z" fill="#3B028B"/>
</svg>
