<svg width="530" height="263" viewBox="0 0 530 263" fill="none" xmlns="http://www.w3.org/2000/svg">
<rect x="22" y="54" width="503" height="65" fill="#A61DEA"/>
<path d="M44.4 129.8C38.96 129.8 33.78 128.84 28.86 126.92C23.94 124.96 19.58 122.08 15.78 118.28C12.02 114.48 9.04 109.78 6.84 104.18C4.68 98.58 3.6 92.12 3.6 84.8C3.6 75.24 5.42 67.12 9.06 60.44C12.74 53.72 17.66 48.6 23.82 45.08C30.02 41.56 36.88 39.8 44.4 39.8C55.52 39.8 64.26 42.38 70.62 47.54C76.98 52.7 81.24 60 83.4 69.44L66.72 71.84C65.16 66.8 62.6 62.78 59.04 59.78C55.52 56.74 51 55.2 45.48 55.16C40 55.08 35.44 56.26 31.8 58.7C28.16 61.14 25.42 64.6 23.58 69.08C21.78 73.56 20.88 78.8 20.88 84.8C20.88 90.8 21.78 96 23.58 100.4C25.42 104.8 28.16 108.22 31.8 110.66C35.44 113.1 40 114.36 45.48 114.44C49.2 114.52 52.56 113.88 55.56 112.52C58.6 111.16 61.16 109.02 63.24 106.1C65.32 103.18 66.8 99.44 67.68 94.88H54V82.28H85.08C85.16 82.8 85.22 83.72 85.26 85.04C85.3 86.36 85.32 87.12 85.32 87.32C85.32 95.6 83.64 102.94 80.28 109.34C76.92 115.74 72.18 120.76 66.06 124.4C59.94 128 52.72 129.8 44.4 129.8ZM97.3453 128V41.6H133.825C134.665 41.6 135.785 41.64 137.185 41.72C138.625 41.76 139.905 41.88 141.025 42.08C146.185 42.88 150.405 44.58 153.685 47.18C157.005 49.78 159.445 53.06 161.005 57.02C162.565 60.94 163.345 65.32 163.345 70.16C163.345 77.4 161.545 83.6 157.945 88.76C154.345 93.88 148.705 97.04 141.025 98.24L133.825 98.72H113.665V128H97.3453ZM146.065 128L129.025 92.84L145.825 89.6L164.545 128H146.065ZM113.665 83.48H133.105C133.945 83.48 134.865 83.44 135.865 83.36C136.865 83.28 137.785 83.12 138.625 82.88C140.825 82.28 142.525 81.28 143.725 79.88C144.925 78.44 145.745 76.86 146.185 75.14C146.665 73.38 146.905 71.72 146.905 70.16C146.905 68.6 146.665 66.96 146.185 65.24C145.745 63.48 144.925 61.9 143.725 60.5C142.525 59.06 140.825 58.04 138.625 57.44C137.785 57.2 136.865 57.04 135.865 56.96C134.865 56.88 133.945 56.84 133.105 56.84H113.665V83.48ZM214.816 129.8C206.176 129.8 198.716 127.92 192.436 124.16C186.196 120.4 181.376 115.14 177.976 108.38C174.616 101.62 172.936 93.76 172.936 84.8C172.936 75.84 174.616 67.98 177.976 61.22C181.376 54.46 186.196 49.2 192.436 45.44C198.716 41.68 206.176 39.8 214.816 39.8C223.456 39.8 230.896 41.68 237.136 45.44C243.416 49.2 248.236 54.46 251.596 61.22C254.996 67.98 256.696 75.84 256.696 84.8C256.696 93.76 254.996 101.62 251.596 108.38C248.236 115.14 243.416 120.4 237.136 124.16C230.896 127.92 223.456 129.8 214.816 129.8ZM214.816 114.44C220.296 114.52 224.856 113.34 228.496 110.9C232.136 108.46 234.856 105 236.656 100.52C238.496 96.04 239.416 90.8 239.416 84.8C239.416 78.8 238.496 73.6 236.656 69.2C234.856 64.8 232.136 61.38 228.496 58.94C224.856 56.5 220.296 55.24 214.816 55.16C209.336 55.08 204.776 56.26 201.136 58.7C197.496 61.14 194.756 64.6 192.916 69.08C191.116 73.56 190.216 78.8 190.216 84.8C190.216 90.8 191.116 96 192.916 100.4C194.756 104.8 197.496 108.22 201.136 110.66C204.776 113.1 209.336 114.36 214.816 114.44ZM283.161 128L257.841 41.6H275.001L291.201 101L307.401 41.72L324.561 41.6L340.761 101L356.961 41.6H374.121L348.801 128H332.721L315.981 69.68L299.241 128H283.161Z" fill="white"/>
<path d="M409.856 100V89.452L401 74.08H406.724L412.34 83.836L417.956 74.08H423.68L414.824 89.452V100H409.856ZM435.878 100.54C433.286 100.54 431.048 99.976 429.164 98.848C427.292 97.72 425.846 96.142 424.826 94.114C423.818 92.086 423.314 89.728 423.314 87.04C423.314 84.352 423.818 81.994 424.826 79.966C425.846 77.938 427.292 76.36 429.164 75.232C431.048 74.104 433.286 73.54 435.878 73.54C438.47 73.54 440.702 74.104 442.574 75.232C444.458 76.36 445.904 77.938 446.912 79.966C447.932 81.994 448.442 84.352 448.442 87.04C448.442 89.728 447.932 92.086 446.912 94.114C445.904 96.142 444.458 97.72 442.574 98.848C440.702 99.976 438.47 100.54 435.878 100.54ZM435.878 95.932C437.522 95.956 438.89 95.602 439.982 94.87C441.074 94.138 441.89 93.1 442.43 91.756C442.982 90.412 443.258 88.84 443.258 87.04C443.258 85.24 442.982 83.68 442.43 82.36C441.89 81.04 441.074 80.014 439.982 79.282C438.89 78.55 437.522 78.172 435.878 78.148C434.234 78.124 432.866 78.478 431.774 79.21C430.682 79.942 429.86 80.98 429.308 82.324C428.768 83.668 428.498 85.24 428.498 87.04C428.498 88.84 428.768 90.4 429.308 91.72C429.86 93.04 430.682 94.066 431.774 94.798C432.866 95.53 434.234 95.908 435.878 95.932ZM462.584 100.54C460.496 100.54 458.66 100.12 457.076 99.28C455.492 98.428 454.256 97.234 453.368 95.698C452.48 94.162 452.036 92.356 452.036 90.28V74.116L457.004 74.08V90.244C457.004 91.096 457.148 91.87 457.436 92.566C457.724 93.262 458.12 93.862 458.624 94.366C459.14 94.87 459.734 95.26 460.406 95.536C461.09 95.8 461.816 95.932 462.584 95.932C463.376 95.932 464.108 95.794 464.78 95.518C465.464 95.242 466.058 94.852 466.562 94.348C467.066 93.844 467.456 93.244 467.732 92.548C468.02 91.852 468.164 91.084 468.164 90.244V74.08H473.132V90.28C473.132 92.356 472.688 94.162 471.8 95.698C470.912 97.234 469.676 98.428 468.092 99.28C466.508 100.12 464.672 100.54 462.584 100.54ZM478.157 100V74.08H489.101C489.353 74.08 489.689 74.092 490.109 74.116C490.541 74.128 490.925 74.164 491.261 74.224C492.809 74.464 494.075 74.974 495.059 75.754C496.055 76.534 496.787 77.518 497.255 78.706C497.723 79.882 497.957 81.196 497.957 82.648C497.957 84.82 497.417 86.68 496.337 88.228C495.257 89.764 493.565 90.712 491.261 91.072L489.101 91.216H483.053V100H478.157ZM492.773 100L487.661 89.452L492.701 88.48L498.317 100H492.773ZM483.053 86.644H488.885C489.137 86.644 489.413 86.632 489.713 86.608C490.013 86.584 490.289 86.536 490.541 86.464C491.201 86.284 491.711 85.984 492.071 85.564C492.431 85.132 492.677 84.658 492.809 84.142C492.953 83.614 493.025 83.116 493.025 82.648C493.025 82.18 492.953 81.688 492.809 81.172C492.677 80.644 492.431 80.17 492.071 79.75C491.711 79.318 491.201 79.012 490.541 78.832C490.289 78.76 490.013 78.712 489.713 78.688C489.413 78.664 489.137 78.652 488.885 78.652H483.053V86.644Z" fill="white"/>
<path d="M6.93 233V161.72H35.442C40.524 161.72 44.6325 162.743 47.7675 164.789C50.9025 166.802 53.196 169.343 54.648 172.412C56.1 175.481 56.826 178.583 56.826 181.718C56.826 185.711 55.9185 189.027 54.1035 191.667C52.3215 194.307 49.863 196.073 46.728 196.964V194.489C51.183 195.413 54.516 197.475 56.727 200.676C58.971 203.877 60.093 207.458 60.093 211.418C60.093 215.675 59.301 219.42 57.717 222.654C56.166 225.888 53.79 228.429 50.589 230.277C47.388 232.092 43.362 233 38.511 233H6.93ZM20.592 220.328H37.125C38.94 220.328 40.557 219.948 41.976 219.189C43.395 218.397 44.5005 217.308 45.2925 215.922C46.1175 214.503 46.53 212.837 46.53 210.923C46.53 209.24 46.1835 207.738 45.4905 206.418C44.7975 205.098 43.7415 204.059 42.3225 203.3C40.9365 202.508 39.204 202.112 37.125 202.112H20.592V220.328ZM20.592 189.539H35.244C36.762 189.539 38.115 189.275 39.303 188.747C40.491 188.219 41.4315 187.41 42.1245 186.321C42.8175 185.199 43.164 183.764 43.164 182.015C43.164 179.837 42.4875 178.005 41.1345 176.52C39.7815 175.035 37.818 174.293 35.244 174.293H20.592V189.539ZM98.9722 234.485C93.2302 234.485 88.1812 233.33 83.8252 231.02C79.4692 228.677 76.0702 225.393 73.6282 221.169C71.1862 216.945 69.9652 211.979 69.9652 206.27V161.819L83.6272 161.72V206.171C83.6272 208.514 84.0232 210.642 84.8152 212.556C85.6072 214.47 86.6962 216.12 88.0822 217.506C89.5012 218.892 91.1347 219.965 92.9827 220.724C94.8637 221.45 96.8602 221.813 98.9722 221.813C101.15 221.813 103.163 221.433 105.011 220.674C106.892 219.915 108.526 218.843 109.912 217.457C111.298 216.071 112.37 214.421 113.129 212.507C113.921 210.593 114.317 208.481 114.317 206.171V161.72H127.979V206.27C127.979 211.979 126.758 216.945 124.316 221.169C121.874 225.393 118.475 228.677 114.119 231.02C109.763 233.33 104.714 234.485 98.9722 234.485ZM165.729 234.485C160.449 234.485 155.681 233.561 151.424 231.713C147.2 229.832 143.718 227.159 140.979 223.694C138.273 220.196 136.557 216.038 135.831 211.22L149.889 209.141C150.879 213.233 152.925 216.384 156.027 218.595C159.129 220.806 162.66 221.912 166.62 221.912C168.831 221.912 170.976 221.565 173.055 220.872C175.134 220.179 176.834 219.156 178.154 217.803C179.507 216.45 180.183 214.784 180.183 212.804C180.183 212.078 180.068 211.385 179.837 210.725C179.639 210.032 179.292 209.388 178.797 208.794C178.302 208.2 177.593 207.639 176.669 207.111C175.778 206.583 174.639 206.105 173.253 205.676L154.74 200.231C153.354 199.835 151.737 199.274 149.889 198.548C148.074 197.822 146.309 196.782 144.593 195.429C142.877 194.076 141.441 192.294 140.286 190.083C139.164 187.839 138.603 185.018 138.603 181.619C138.603 176.834 139.808 172.857 142.217 169.689C144.626 166.521 147.843 164.162 151.869 162.611C155.895 161.06 160.35 160.301 165.234 160.334C170.151 160.4 174.54 161.241 178.401 162.858C182.262 164.475 185.496 166.835 188.103 169.937C190.71 173.006 192.591 176.768 193.746 181.223L179.193 183.698C178.665 181.388 177.692 179.441 176.273 177.857C174.854 176.273 173.154 175.068 171.174 174.243C169.227 173.418 167.181 172.973 165.036 172.907C162.924 172.841 160.928 173.138 159.047 173.798C157.199 174.425 155.681 175.349 154.493 176.57C153.338 177.791 152.76 179.243 152.76 180.926C152.76 182.477 153.239 183.747 154.196 184.737C155.153 185.694 156.357 186.47 157.809 187.064C159.261 187.658 160.746 188.153 162.264 188.549L174.639 191.915C176.487 192.41 178.533 193.07 180.777 193.895C183.021 194.687 185.166 195.809 187.212 197.261C189.291 198.68 190.991 200.561 192.311 202.904C193.664 205.247 194.34 208.217 194.34 211.814C194.34 215.642 193.532 218.991 191.915 221.862C190.331 224.7 188.186 227.06 185.48 228.941C182.774 230.789 179.705 232.175 176.273 233.099C172.874 234.023 169.359 234.485 165.729 234.485ZM206.21 233V161.72H219.674V233H206.21ZM234.514 233V161.72H248.176L279.163 209.24V161.72H292.825V233H279.163L248.176 185.48V233H234.514ZM306.637 233V161.72H353.167V174.293H320.101V189.539H347.227V202.112H320.101V220.427H353.167V233H306.637ZM391.96 234.485C386.68 234.485 381.911 233.561 377.654 231.713C373.43 229.832 369.949 227.159 367.21 223.694C364.504 220.196 362.788 216.038 362.062 211.22L376.12 209.141C377.11 213.233 379.156 216.384 382.258 218.595C385.36 220.806 388.891 221.912 392.851 221.912C395.062 221.912 397.207 221.565 399.286 220.872C401.365 220.179 403.064 219.156 404.384 217.803C405.737 216.45 406.414 214.784 406.414 212.804C406.414 212.078 406.298 211.385 406.067 210.725C405.869 210.032 405.523 209.388 405.028 208.794C404.533 208.2 403.823 207.639 402.899 207.111C402.008 206.583 400.87 206.105 399.484 205.676L380.971 200.231C379.585 199.835 377.968 199.274 376.12 198.548C374.305 197.822 372.539 196.782 370.823 195.429C369.107 194.076 367.672 192.294 366.517 190.083C365.395 187.839 364.834 185.018 364.834 181.619C364.834 176.834 366.038 172.857 368.447 169.689C370.856 166.521 374.074 164.162 378.1 162.611C382.126 161.06 386.581 160.301 391.465 160.334C396.382 160.4 400.771 161.241 404.632 162.858C408.493 164.475 411.727 166.835 414.334 169.937C416.941 173.006 418.822 176.768 419.977 181.223L405.424 183.698C404.896 181.388 403.922 179.441 402.503 177.857C401.084 176.273 399.385 175.068 397.405 174.243C395.458 173.418 393.412 172.973 391.267 172.907C389.155 172.841 387.158 173.138 385.277 173.798C383.429 174.425 381.911 175.349 380.723 176.57C379.568 177.791 378.991 179.243 378.991 180.926C378.991 182.477 379.469 183.747 380.426 184.737C381.383 185.694 382.588 186.47 384.04 187.064C385.492 187.658 386.977 188.153 388.495 188.549L400.87 191.915C402.718 192.41 404.764 193.07 407.008 193.895C409.252 194.687 411.397 195.809 413.443 197.261C415.522 198.68 417.221 200.561 418.541 202.904C419.894 205.247 420.571 208.217 420.571 211.814C420.571 215.642 419.762 218.991 418.145 221.862C416.561 224.7 414.416 227.06 411.71 228.941C409.004 230.789 405.935 232.175 402.503 233.099C399.104 234.023 395.59 234.485 391.96 234.485ZM459.829 234.485C454.549 234.485 449.78 233.561 445.523 231.713C441.299 229.832 437.818 227.159 435.079 223.694C432.373 220.196 430.657 216.038 429.931 211.22L443.989 209.141C444.979 213.233 447.025 216.384 450.127 218.595C453.229 220.806 456.76 221.912 460.72 221.912C462.931 221.912 465.076 221.565 467.155 220.872C469.234 220.179 470.933 219.156 472.253 217.803C473.606 216.45 474.283 214.784 474.283 212.804C474.283 212.078 474.167 211.385 473.936 210.725C473.738 210.032 473.392 209.388 472.897 208.794C472.402 208.2 471.692 207.639 470.768 207.111C469.877 206.583 468.739 206.105 467.353 205.676L448.84 200.231C447.454 199.835 445.837 199.274 443.989 198.548C442.174 197.822 440.408 196.782 438.692 195.429C436.976 194.076 435.541 192.294 434.386 190.083C433.264 187.839 432.703 185.018 432.703 181.619C432.703 176.834 433.907 172.857 436.316 169.689C438.725 166.521 441.943 164.162 445.969 162.611C449.995 161.06 454.45 160.301 459.334 160.334C464.251 160.4 468.64 161.241 472.501 162.858C476.362 164.475 479.596 166.835 482.203 169.937C484.81 173.006 486.691 176.768 487.846 181.223L473.293 183.698C472.765 181.388 471.791 179.441 470.372 177.857C468.953 176.273 467.254 175.068 465.274 174.243C463.327 173.418 461.281 172.973 459.136 172.907C457.024 172.841 455.027 173.138 453.146 173.798C451.298 174.425 449.78 175.349 448.592 176.57C447.437 177.791 446.86 179.243 446.86 180.926C446.86 182.477 447.338 183.747 448.295 184.737C449.252 185.694 450.457 186.47 451.909 187.064C453.361 187.658 454.846 188.153 456.364 188.549L468.739 191.915C470.587 192.41 472.633 193.07 474.877 193.895C477.121 194.687 479.266 195.809 481.312 197.261C483.391 198.68 485.09 200.561 486.41 202.904C487.763 205.247 488.44 208.217 488.44 211.814C488.44 215.642 487.631 218.991 486.014 221.862C484.43 224.7 482.285 227.06 479.579 228.941C476.873 230.789 473.804 232.175 470.372 233.099C466.973 234.023 463.459 234.485 459.829 234.485ZM504.27 233V221.12H517.734V233H504.27ZM504.27 215.18V161.72H517.734V215.18H504.27Z" fill="white"/>
</svg>
