<svg width="69" height="99" viewBox="0 0 69 99" fill="none" xmlns="http://www.w3.org/2000/svg">
<path d="M69 34.6583C69.0022 28.6938 67.471 22.8298 64.5546 17.6339C61.6382 12.4379 57.4355 8.08609 52.3532 4.99958C47.2709 1.91307 41.4811 0.196449 35.5444 0.0158828C29.6078 -0.164683 23.7252 1.19692 18.4662 3.9689C13.2072 6.74088 8.74986 10.8293 5.5257 15.8385C2.30154 20.8477 0.419745 26.6079 0.0624788 32.5615C-0.294787 38.5152 0.884573 44.4607 3.4864 49.8224C6.08822 55.1841 10.0244 59.7805 14.9139 63.1666L5.44771e-06 89.1013L11.1189 89.5616L17.0726 99L34.155 69.284C34.2733 69.284 34.3817 69.3038 34.5 69.3038C34.6183 69.3038 34.7267 69.289 34.845 69.284L51.9274 99L57.9994 89.7645L69 89.1013L54.0861 63.1666C58.6875 59.9852 62.4494 55.7277 65.0475 50.7613C67.6457 45.7948 69.0021 40.2684 69 34.6583ZM9.85715 34.6583C9.85715 29.7638 11.3024 24.9793 14.0102 20.9097C16.718 16.8401 20.5667 13.6683 25.0696 11.7952C29.5725 9.9222 34.5273 9.43213 39.3076 10.387C44.0878 11.3419 48.4788 13.6988 51.9251 17.1597C55.3715 20.6206 57.7185 25.03 58.6693 29.8304C59.6202 34.6308 59.1322 39.6066 57.267 44.1285C55.4019 48.6504 52.2433 52.5153 48.1908 55.2345C44.1383 57.9537 39.3739 59.4051 34.5 59.4051C27.9643 59.4051 21.6963 56.7979 17.0749 52.1569C12.4534 47.516 9.85715 41.2216 9.85715 34.6583Z" fill="#3B028B"/>
<path d="M34.5 50C42.5081 50 49 43.2843 49 35C49 26.7157 42.5081 20 34.5 20C26.4919 20 20 26.7157 20 35C20 43.2843 26.4919 50 34.5 50Z" fill="#3B028B"/>
</svg>
