<svg width="94" height="98" viewBox="0 0 94 98" fill="none" xmlns="http://www.w3.org/2000/svg">
<path fill-rule="evenodd" clip-rule="evenodd" d="M77.0242 0.00648129C79.4681 0.00648129 81.4545 2.06102 81.4545 4.58868V12.9689H89.557C90.4334 12.9687 91.2901 13.2373 92.0188 13.7408C92.7476 14.2443 93.3156 14.96 93.651 15.7974C93.9864 16.6348 94.0741 17.5563 93.9031 18.4453C93.7321 19.3343 93.31 20.1508 92.6902 20.7917L83.5413 30.2542C82.2062 31.634 80.3967 32.4101 78.5093 32.4124H69.2978L47.1774 55.291C46.2865 56.1497 45.1081 56.6171 43.8906 56.5949C42.673 56.5727 41.5113 56.0625 40.6502 55.1719C39.7891 54.2813 39.2959 53.0798 39.2744 51.8205C39.2529 50.5612 39.7049 49.3424 40.535 48.421L62.6554 25.5424V16.015C62.6554 14.0642 63.4074 12.1911 64.7421 10.8041L73.891 1.34161C74.3025 0.91614 74.791 0.578674 75.3286 0.34848C75.8662 0.118285 76.4424 -0.000128431 77.0242 1.04529e-07V0.00648129ZM9.39111 51.856C9.39045 46.5708 10.5261 41.3516 12.7158 36.5763C14.9055 31.801 18.0945 27.589 22.0519 24.2453C26.0093 20.9017 30.636 18.51 35.5971 17.2435C40.5582 15.9769 45.7296 15.8673 50.7367 16.9224C51.9519 17.1622 53.2095 16.8968 54.2367 16.1837C55.2639 15.4706 55.9779 14.3674 56.2237 13.1134C56.4695 11.8594 56.2273 10.5557 55.5497 9.48516C54.8721 8.41464 53.8137 7.66362 52.6041 7.39504C43.3654 5.45232 33.7673 6.63991 25.2323 10.7818C16.6974 14.9237 9.67978 21.7995 5.21953 30.3901C0.75928 38.9808 -0.906241 48.8291 0.469802 58.4756C1.84585 68.1221 6.19022 77.0534 12.8591 83.9458C19.5279 90.8382 28.1664 95.325 37.4942 96.7411C46.822 98.1573 56.3427 96.4275 64.6454 91.808C72.948 87.1886 79.5908 79.9254 83.5892 71.0948C87.5875 62.2643 88.7287 52.3363 86.8436 42.7823C86.5952 41.5189 85.8716 40.4093 84.8322 39.6977C83.7928 38.986 82.5226 38.7306 81.301 38.9876C80.0795 39.2446 79.0067 39.9929 78.3186 41.068C77.6306 42.1431 77.3836 43.4568 77.632 44.7202C78.5902 49.6006 78.549 54.6345 77.5111 59.4975C76.4732 64.3604 74.4617 68.9445 71.6061 72.9542C68.7506 76.9639 65.1144 80.3102 60.9319 82.7776C56.7495 85.2449 52.1136 86.7785 47.323 87.2794C42.5325 87.7803 37.6936 87.2375 33.1183 85.686C28.543 84.1344 24.3328 81.6085 20.7591 78.2711C17.1853 74.9337 14.3273 70.8588 12.3694 66.3092C10.4114 61.7595 9.39683 56.836 9.39111 51.856ZM43.004 35.6789C44.2488 35.6102 45.4162 35.0328 46.2494 34.0738C47.0826 33.1148 47.5133 31.8528 47.4469 30.5653C47.3804 29.2778 46.8221 28.0704 45.8949 27.2086C44.9677 26.3469 43.7475 25.9014 42.5027 25.9701C37.6896 26.2384 33.0534 27.9363 29.1496 30.8603C25.2457 33.7844 22.2398 37.8106 20.492 42.4566C18.7442 47.1025 18.3286 52.1712 19.295 57.0552C20.2614 61.9392 22.5688 66.4315 25.9408 69.9937C29.3128 73.556 33.6063 76.0371 38.307 77.1399C43.0076 78.2426 47.916 77.9202 52.444 76.2113C56.972 74.5023 60.9275 71.4793 63.8367 67.5045C66.7459 63.5297 68.4853 58.7716 68.8466 53.8004C68.9388 52.5146 68.5334 51.2436 67.7196 50.267C66.9058 49.2904 65.7502 48.6881 64.5071 48.5927C63.264 48.4973 62.0351 48.9166 61.0909 49.7583C60.1466 50.6 59.5643 51.7952 59.4721 53.0809C59.2435 56.1863 58.1545 59.1578 56.3353 61.6396C54.5162 64.1215 52.0441 66.0085 49.2149 67.0747C46.3857 68.141 43.3194 68.3414 40.3829 67.6519C37.4465 66.9624 34.7644 65.4122 32.6577 63.1869C30.551 60.9617 29.1091 58.1556 28.5044 55.1046C27.8998 52.0537 28.1581 48.8871 29.2484 45.9841C30.3387 43.081 32.2148 40.5645 34.6522 38.7357C37.0895 36.9069 39.9848 35.8434 42.9915 35.6725L43.004 35.6789Z" fill="#3B028B"/>
</svg>
