<svg width="102" height="102" viewBox="0 0 102 102" fill="none" xmlns="http://www.w3.org/2000/svg">
<path d="M4 51C4 57.1721 5.21569 63.2838 7.57766 68.9861C9.93963 74.6884 13.4016 79.8697 17.766 84.234C22.1303 88.5984 27.3116 92.0604 33.0139 94.4223C38.7162 96.7843 44.8279 98 51 98C57.1721 98 63.2838 96.7843 68.9861 94.4223C74.6884 92.0604 79.8697 88.5984 84.234 84.234C88.5984 79.8697 92.0604 74.6884 94.4223 68.9861C96.7843 63.2838 98 57.1721 98 51C98 44.8279 96.7843 38.7162 94.4223 33.0139C92.0604 27.3116 88.5984 22.1303 84.234 17.766C79.8697 13.4016 74.6884 9.93963 68.9861 7.57766C63.2838 5.21569 57.1721 4 51 4C44.8279 4 38.7162 5.21569 33.0139 7.57766C27.3116 9.93963 22.1303 13.4016 17.766 17.766C13.4016 22.1303 9.93963 27.3116 7.57766 33.0139C5.21569 38.7162 4 44.8279 4 51Z" stroke="#3B028B" stroke-width="7" stroke-linecap="round" stroke-linejoin="round"/>
<path d="M60.75 39.2498C59.4653 36.7431 57.0527 35.2339 54.4833 35.3331H47.5169C43.6733 35.3331 40.5557 38.832 40.5557 43.1665C40.5557 47.4852 43.6733 50.9946 47.5169 50.9946H54.4833C58.3269 50.9946 61.4446 54.4987 61.4446 58.8279C61.4446 63.1519 58.3269 66.656 54.4833 66.656H47.5169C44.9476 66.7552 42.5349 65.246 41.2502 62.7393M51.0001 24.8887V35.3331M51.0001 66.6665V77.1109" stroke="#3B028B" stroke-width="7" stroke-linecap="round" stroke-linejoin="round"/>
</svg>
