<svg width="106" height="109" viewBox="0 0 106 109" fill="none" xmlns="http://www.w3.org/2000/svg">
<path d="M6 27.6049V16.8025C6 13.9375 7.10039 11.1898 9.05911 9.16397C11.0178 7.13811 13.6744 6 16.4444 6H26.8889M79.1111 6H89.5556C92.3256 6 94.9822 7.13811 96.9409 9.16397C98.8996 11.1898 100 13.9375 100 16.8025V27.6049M100 81.6173V92.4197C100 95.2847 98.8996 98.0324 96.9409 100.058C94.9822 102.084 92.3256 103.222 89.5556 103.222H79.1111M26.8889 103.222H16.4444C13.6744 103.222 11.0178 102.084 9.05911 100.058C7.10039 98.0324 6 95.2847 6 92.4197V81.6173" stroke="#3B028B" stroke-width="11" stroke-linecap="round" stroke-linejoin="round"/>
<path d="M53.2222 60.0115C56.1064 60.0115 58.4444 57.5932 58.4444 54.6102C58.4444 51.6272 56.1064 49.209 53.2222 49.209C50.3381 49.209 48 51.6272 48 54.6102C48 57.5932 50.3381 60.0115 53.2222 60.0115Z" stroke="#3B028B" stroke-width="11" stroke-linecap="round" stroke-linejoin="round"/>
<path d="M16 54.6116C16 54.6116 29.0556 27.6055 52.5556 27.6055C76.0556 27.6055 89.1111 54.6116 89.1111 54.6116C89.1111 54.6116 76.0556 81.6178 52.5556 81.6178C29.0556 81.6178 16 54.6116 16 54.6116Z" stroke="#3B028B" stroke-width="11" stroke-linecap="round" stroke-linejoin="round"/>
</svg>
